<svg xmlns="http://www.w3.org/2000/svg" viewBox="0 0 100 100" width="100" height="100">
  <defs>
    <linearGradient id="hg" x1="0%" y1="0%" x2="100%" y2="100%">
      <stop offset="0%" style="stop-color:#2E7D8C;stop-opacity:1" />
      <stop offset="100%" style="stop-color:#4AABB8;stop-opacity:1" />
    </linearGradient>
  </defs>

  <!-- Background circle -->
  <circle cx="50" cy="50" r="48" fill="#1B3A4B"/>

  <!-- Caring hands -->
  <path d="M 20 60 Q 12 40, 35 28 Q 43 23, 50 26" fill="none" stroke="white" stroke-width="3" stroke-linecap="round" opacity="0.5"/>
  <path d="M 80 60 Q 88 40, 65 28 Q 57 23, 50 26" fill="none" stroke="white" stroke-width="3" stroke-linecap="round" opacity="0.5"/>

  <!-- Heart-pin -->
  <path d="M 50 24 C 40 10, 18 18, 30 36 C 36 46, 50 62, 50 62 C 50 62, 64 46, 70 36 C 82 18, 60 10, 50 24 Z"
        fill="url(#hg)"/>
  <circle cx="50" cy="35" r="7" fill="white" opacity="0.85"/>

  <!-- People -->
  <circle cx="38" cy="74" r="4" fill="#F4A261"/>
  <line x1="38" y1="78" x2="38" y2="90" stroke="#F4A261" stroke-width="2.5" stroke-linecap="round"/>
  <circle cx="62" cy="77" r="3.5" fill="#E07A5F"/>
  <line x1="62" y1="80.5" x2="62" y2="90" stroke="#E07A5F" stroke-width="2" stroke-linecap="round"/>
</svg>
